<svg width="8" height="12" viewBox="0 0 8 12" fill="none" xmlns="http://www.w3.org/2000/svg">
<g id="Group">
<path id="Path" fill-rule="evenodd" clip-rule="evenodd" d="M4.83322 7.11111H6.36086C6.48833 7.11111 6.59943 7.02436 6.63035 6.90071L7.04701 5.23404C7.06776 5.15106 7.04912 5.06314 6.99648 4.99572C6.94384 4.9283 6.86307 4.88889 6.77753 4.88889H4.83322V3.77778C4.83322 3.47095 5.08196 3.22222 5.38878 3.22222H6.77767C6.93108 3.22222 7.05545 3.09786 7.05545 2.94444V1.27778C7.05545 1.12437 6.93108 1 6.77767 1H5.38878C3.85466 1 2.611 2.24365 2.611 3.77778V4.88889H1.22211C1.0687 4.88889 0.944336 5.01325 0.944336 5.16667V6.83333C0.944336 6.98675 1.0687 7.11111 1.22211 7.11111H2.611V10.7222C2.611 10.8756 2.73537 11 2.88878 11H4.55545C4.70886 11 4.83322 10.8756 4.83322 10.7222V7.11111Z" stroke="white" stroke-width="0.8" stroke-linecap="round" stroke-linejoin="round"/>
</g>
</svg>
