<svg width="81" height="48" viewBox="0 0 81 48" fill="none" xmlns="http://www.w3.org/2000/svg">
<g id="Frame 28">
<path id="Vector" d="M0 5.95854V0.174438H22.9743V23.0846H17.3095V10.102L4.20047 23.2111L0.0961899 19.1068L13.2373 5.96566L0 5.95854Z" fill="#5A8CFF"/>
<path id="Vector_2" d="M23.9165 23.0153V0H39.393V4.17018H28.7048V9.39137H38.7767V13.5616H28.7048V18.8451H39.393V23.0153H23.9165Z" fill="#2264DC"/>
<path id="Vector_3" d="M52.0574 23.533C50.482 23.5496 48.9196 23.2506 47.465 22.6543C46.0787 22.0849 44.8218 21.2484 43.7679 20.194C42.709 19.1251 41.8734 17.8617 41.3085 16.4755C40.7096 14.9921 40.4104 13.4078 40.4275 11.8114C40.4113 10.2119 40.7055 8.62407 41.2942 7.13336C41.8405 5.75146 42.6665 4.49354 43.7218 3.43613C44.7772 2.37873 46.0398 1.54396 47.4329 0.982612C48.9007 0.393923 50.4728 0.0988188 52.0574 0.114477C53.597 0.085676 55.1269 0.360526 56.5571 0.922862C57.8219 1.42831 58.9733 2.17414 59.9457 3.1178C60.8338 3.97035 61.5106 5.01308 61.9236 6.16506L57.6861 8.17372C57.2976 7.07943 56.5804 6.12754 55.6297 5.44454C54.65 4.72403 53.461 4.36377 52.0628 4.36377C50.7975 4.33918 49.5512 4.66952 48.4691 5.31626C47.4383 5.94678 46.6078 6.84975 46.0721 7.92242C45.505 9.03189 45.2214 10.3271 45.2214 11.8079C45.2214 13.2888 45.505 14.5892 46.0721 15.7093C46.6054 16.7849 47.4364 17.6901 48.4691 18.3207C49.5505 18.9634 50.7948 19.2906 52.0574 19.2644C53.4592 19.2644 54.6482 18.9041 55.6244 18.1836C56.5746 17.5009 57.2917 16.5497 57.6807 15.4562L61.9182 17.4666C61.5053 18.6186 60.8285 19.6613 59.9404 20.5139C58.968 21.4575 57.8165 22.2034 56.5518 22.7088C55.1244 23.2759 53.5963 23.5561 52.0574 23.533Z" fill="#2264DC"/>
<path id="Vector_4" d="M63.8623 23.0153V0H68.6506V9.94716H75.4282V0H80.2165V23.0153H75.4282V14.1191H68.6506V23.0153H63.8623Z" fill="#2264DC"/>
<path id="Vector_5" d="M48.0186 47.9999V24.9828H52.8069V43.8279H62.5385V47.9999H48.0186Z" fill="#2264DC"/>
<path id="Vector_6" d="M64.2197 47.9615V24.9445H69.008V43.7895H78.7397V47.9615H64.2197Z" fill="#2264DC"/>
<path id="Vector_7" d="M47.8066 47.8664L41.0687 48L29.6315 33.1897L29.6136 48H23.9507V25.1273L29.6421 25.1451V25.1486L47.8066 47.8664Z" fill="#2264DC"/>
<path id="Vector_8" d="M23.0617 25.1058L17.3614 25.088L0.10498 41.4151V47.0762L17.3685 46.9418V47.9572H23.0315L23.0617 25.1058ZM6.93233 41.4151L17.3685 33.1255V41.2593L6.93233 41.4151Z" fill="#5A8CFF"/>
<rect id="Rectangle 40267" x="27.2617" y="38.03" width="11.0604" height="4.98498" fill="#2264DC"/>
<rect id="Rectangle 40268" x="48.4478" y="43.7939" width="14.7992" height="4.20608" fill="#2264DC"/>
<rect id="Rectangle 40269" x="64.3374" y="43.7939" width="16.2012" height="4.20608" fill="#2264DC"/>
</g>
</svg>
