<svg width="14" height="14" viewBox="0 0 14 14" fill="none" xmlns="http://www.w3.org/2000/svg">
<g id="Group">
<path id="Path" fill-rule="evenodd" clip-rule="evenodd" d="M4.49778 2H9.50278C10.8817 2 12 3.11778 12 4.49778V9.50278C12 10.8817 10.8822 12 9.50222 12H4.49778C3.11833 12 2 10.8822 2 9.50222V4.49778C2 3.11833 3.11778 2 4.49778 2V2Z" stroke="white" stroke-width="0.8" stroke-linecap="round" stroke-linejoin="round"/>
<path id="Path_2" d="M9.74967 4.06278C9.64633 4.06334 9.56244 4.14723 9.56244 4.25056C9.56244 4.35389 9.64689 4.43778 9.75022 4.43778C9.85356 4.43778 9.93744 4.35389 9.93744 4.25056C9.938 4.14667 9.85356 4.06278 9.74967 4.06278" stroke="white" stroke-width="0.8" stroke-linecap="round" stroke-linejoin="round"/>
<path id="Path_3" d="M8.41422 5.58579C9.19527 6.36684 9.19527 7.63317 8.41422 8.41422C7.63317 9.19527 6.36684 9.19527 5.58579 8.41422C4.80474 7.63317 4.80474 6.36684 5.58579 5.58579C6.36684 4.80474 7.63317 4.80474 8.41422 5.58579" stroke="white" stroke-width="0.8" stroke-linecap="round" stroke-linejoin="round"/>
</g>
</svg>
