<svg width="14" height="14" viewBox="0 0 14 14" fill="none" xmlns="http://www.w3.org/2000/svg">
<g id="Group">
<path id="Path" fill-rule="evenodd" clip-rule="evenodd" d="M4.5 2H9.50222C10.8817 2 12 3.11833 12 4.49778V9.50278C12 10.8817 10.8817 12 9.50222 12H4.49778C3.11833 12 2 10.8817 2 9.50222V4.5C2 3.11944 3.11944 2 4.5 2V2Z" stroke="white" stroke-width="0.8" stroke-linecap="round" stroke-linejoin="round"/>
<path id="Path_2" d="M4.84467 6.5V9.5" stroke="white" stroke-width="0.8" stroke-linecap="round" stroke-linejoin="round"/>
<g id="Group_2">
<path id="Path_3" d="M6.84375 9.5V7.75C6.84375 7.05944 7.40319 6.5 8.09375 6.5V6.5C8.78431 6.5 9.34375 7.05944 9.34375 7.75V9.5" stroke="white" stroke-width="0.8" stroke-linecap="round" stroke-linejoin="round"/>
<path id="Path_4" d="M4.84314 4.68778C4.77425 4.68778 4.71814 4.74389 4.7187 4.81278C4.7187 4.88167 4.77481 4.93778 4.8437 4.93778C4.91259 4.93778 4.9687 4.88167 4.9687 4.81278C4.9687 4.74334 4.91259 4.68778 4.84314 4.68778" stroke="white" stroke-width="0.8" stroke-linecap="round" stroke-linejoin="round"/>
</g>
</g>
</svg>
