 <svg xmlns="http://www.w3.org/2000/svg" width="auto" height="715" viewBox="0 0 1440 588" fill="none" >
            <path d="M-70.1808 557.904C-78.222 559.896 -83.1254 568.03 -81.1331 576.071C-79.1407 584.112 -71.0069 589.016 -62.9658 587.023L-70.1808 557.904ZM256.722 265.148L268.031 255.293L256.722 265.148ZM1520.31 33.5342L1532.15 24.315L1513.71 0.650059L1501.88 9.86922L1520.31 33.5342ZM-62.9658 587.023C-22.6129 577.025 57.9033 551.802 135.171 508.172C212.01 464.784 288.449 401.603 316.054 314.481L287.455 305.419C263.316 381.603 195.07 439.897 120.42 482.049C46.1989 523.958 -31.5773 548.339 -70.1808 557.904L-62.9658 587.023ZM316.054 314.481C329.342 272.541 330.875 241.787 323.41 220.698C319.57 209.851 313.244 201.348 304.846 195.82C296.486 190.318 287.062 188.419 278.129 189.08C260.8 190.361 244.083 201.3 235.866 217.264C226.992 234.502 228.77 255.903 245.413 275.002L268.031 255.293C258.799 244.699 259.736 236.439 262.539 230.994C265.999 224.274 273.476 219.506 280.342 218.998C283.506 218.764 286.18 219.45 288.353 220.88C290.487 222.285 293.13 225.062 295.129 230.709C299.342 242.61 300.038 265.706 287.455 305.419L316.054 314.481ZM245.413 275.002C306.685 345.317 748.094 635.203 1520.31 33.5342L1501.88 9.86922C739.184 604.114 316.483 310.896 268.031 255.293L245.413 275.002Z" fill="#2264DC" fill-opacity="0.18"/>
          </svg>