<svg width="10" height="9" viewBox="0 0 10 9" fill="none" xmlns="http://www.w3.org/2000/svg">
<g id="x_logo.svg" clip-path="url(#clip0_21316_128472)">
<g id="Group">
<path id="Vector" d="M3.27246 0.320282L5.04395 2.9111L5.29102 3.27145L5.56055 2.9277L7.60547 0.320282H8.09473L5.65625 3.4238L5.51172 3.60837L5.64453 3.8027L8.66016 8.21286H6.7959L4.83496 5.37399L4.58984 5.01852L4.32129 5.35739L2.05273 8.21286H1.56543L4.20605 4.86325L4.35254 4.6777L4.21777 4.48337L1.34375 0.320282H3.27246ZM1.99512 0.99704L6.72461 7.84274L6.82031 7.98141H8.3125L7.97168 7.48044L3.31152 0.635712L3.21582 0.495087H1.64844L1.99512 0.99704Z" fill="white" stroke="white" stroke-width="0.64"/>
</g>
</g>
<defs>
<clipPath id="clip0_21316_128472">
<rect width="8.53333" height="8.53333" fill="white" transform="translate(0.733398 -3.05176e-05)"/>
</clipPath>
</defs>
</svg>
