<svg width="35" height="31" viewBox="0 0 35 31" fill="none" xmlns="http://www.w3.org/2000/svg">
<g id="Frame 1618874083">
<path id="Vector" fill-rule="evenodd" clip-rule="evenodd" d="M11.6503 30.1253C11.7464 25.8835 9.96377 21.6613 6.08447 19.1246C4.58229 18.1424 2.8063 17.7898 1.05749 17.498C8.15576 17.2302 10.5886 9.94835 11.5518 4.31507C11.2308 9.36516 13.9519 14.8073 19.466 15.2876C13.9928 18.4694 12.135 24.2741 11.6503 30.1253Z" fill="#2264DC" stroke="#D3E0F8" stroke-width="1.11248" stroke-miterlimit="1.5" stroke-linecap="round" stroke-linejoin="round"/>
<path id="Vector_2" fill-rule="evenodd" clip-rule="evenodd" d="M34.0568 10.2713C31.3147 11.9365 28.6563 14.4991 27.4189 17.0441C26.5655 13.9543 24.0699 11.5362 20.3964 10.0709C24.3277 9.74461 27.2911 6.16062 28.2169 3.53607C28.3493 6.14313 31.0508 8.89303 34.0568 10.2713Z" fill="#2264DC" stroke="#D3E0F8" stroke-width="0.556241" stroke-miterlimit="1.5" stroke-linecap="round" stroke-linejoin="round"/>
</g>
</svg>
